<svg xmlns="http://www.w3.org/2000/svg" width="39" height="39" viewBox="0 0 39 39">
  <path id="ig_logo" d="M16.813,15.479a4.836,4.836,0,1,0,2.687-.815A4.836,4.836,0,0,0,16.813,15.479Zm21.231-10A7.8,7.8,0,0,0,33.521.956,12.733,12.733,0,0,0,29.114.137C26.6,0,25.857,0,19.5,0S12.4,0,9.887.137A12.733,12.733,0,0,0,5.479.956,7.8,7.8,0,0,0,.956,5.479,12.733,12.733,0,0,0,.137,9.887C0,12.4,0,13.143,0,19.5s0,7.1.137,9.614A13.377,13.377,0,0,0,.956,33.54,7.683,7.683,0,0,0,2.73,36.27a7.585,7.585,0,0,0,2.749,1.774,12.735,12.735,0,0,0,4.407.819C12.4,39,13.143,39,19.5,39s7.1,0,9.614-.137a12.735,12.735,0,0,0,4.407-.819,7.585,7.585,0,0,0,2.75-1.774,7.683,7.683,0,0,0,1.774-2.73,12.87,12.87,0,0,0,.819-4.427C39,26.6,39,25.857,39,19.5s0-7.1-.137-9.613A12.735,12.735,0,0,0,38.044,5.479ZM33.15,29A7.528,7.528,0,0,1,29,33.15a11.174,11.174,0,0,1-3.53.682H13.533A11.174,11.174,0,0,1,10,33.15,7.259,7.259,0,0,1,5.85,29a10.706,10.706,0,0,1-.663-3.53V13.533A10.706,10.706,0,0,1,5.85,10,6.844,6.844,0,0,1,7.527,7.449,7,7,0,0,1,10,5.85a11.174,11.174,0,0,1,3.53-.682H25.467A11.174,11.174,0,0,1,29,5.85a6.844,6.844,0,0,1,2.555,1.677A6.845,6.845,0,0,1,33.15,10a11.174,11.174,0,0,1,.682,3.53V19.5c0,4.017.137,4.427.078,5.967v.02A11.174,11.174,0,0,1,33.15,29ZM29.718,9.3a4.641,4.641,0,0,0-1.677-1.073A7.8,7.8,0,0,0,25.35,7.8H13.65a7.8,7.8,0,0,0-2.691.507A4.641,4.641,0,0,0,8.21,10.959,8.327,8.327,0,0,0,7.8,13.65v11.7a8.327,8.327,0,0,0,.507,2.691,4.641,4.641,0,0,0,2.75,2.75,8.327,8.327,0,0,0,2.593.507h11.7a7.8,7.8,0,0,0,2.691-.507,4.641,4.641,0,0,0,2.75-2.75A7.8,7.8,0,0,0,31.3,25.35V13.65a7.37,7.37,0,0,0-.507-2.691v.02A4.641,4.641,0,0,0,29.718,9.3ZM16.652,26.382a7.48,7.48,0,1,1,2.848.567A7.432,7.432,0,0,1,16.652,26.382ZM26.18,12.942a1.755,1.755,0,0,1,1.12-2.919,1.755,1.755,0,0,1,0,3.491A1.755,1.755,0,0,1,26.18,12.942Z" transform="translate(0 0)" fill="#fff" style="mix-blend-mode: normal;isolation: isolate"/>
</svg>
