<svg xmlns="http://www.w3.org/2000/svg" width="39.309" height="32" viewBox="0 0 39.309 32">
  <g id="Twitter_logo" transform="translate(0 0)" style="mix-blend-mode: normal;isolation: isolate">
    <path id="Vector" d="M34.671,5.092A8.117,8.117,0,0,0,38.228.63,16.136,16.136,0,0,1,33.1,2.6,8.058,8.058,0,0,0,19.34,9.946a22.878,22.878,0,0,1-9.2-2.449A22.878,22.878,0,0,1,2.732,1.515,8.176,8.176,0,0,0,1.651,5.583a8.039,8.039,0,0,0,3.577,6.7,7.961,7.961,0,0,1-3.656-1v.1a8.058,8.058,0,0,0,6.486,7.862,7.722,7.722,0,0,1-2.162.334,9.622,9.622,0,0,1-1.513-.138,8.078,8.078,0,0,0,7.528,5.582,16.156,16.156,0,0,1-9.945,3.459A15.576,15.576,0,0,1,0,28.363,22.741,22.741,0,0,0,12.363,32,22.78,22.78,0,0,0,35.378,9.042V8a16.569,16.569,0,0,0,3.931-4.167A16.687,16.687,0,0,1,34.671,5.092Z" fill="#fff" style="mix-blend-mode: normal;isolation: isolate"/>
  </g>
</svg>
