<svg xmlns="http://www.w3.org/2000/svg" width="39" height="39" viewBox="0 0 39 39">
  <path id="wa_logo" d="M25.273,21.861a.927.927,0,0,0-1.175.195c-.392.389-1.176,1.558-1.567,1.948-.2.39-.588.39-.98.195a16.037,16.037,0,0,1-3.918-2.337,22.445,22.445,0,0,1-2.743-3.311.853.853,0,0,1,.2-.974c.2-.195.392-.584.784-.779a1.473,1.473,0,0,0,.392-.779.59.59,0,0,0,0-.779,34.517,34.517,0,0,1-1.567-3.506c-.2-1.363-.588-1.363-.98-1.363h-.98a2.239,2.239,0,0,0-1.175.584A5.589,5.589,0,0,0,9.8,15.045a10.166,10.166,0,0,0,1.959,5.064,20.849,20.849,0,0,0,8.229,7.206,15.421,15.421,0,0,0,2.743.974,5.627,5.627,0,0,0,3.135.195,5.075,5.075,0,0,0,3.331-2.337,3.24,3.24,0,0,0,.2-2.337L28.6,23.42C28.212,23.225,25.665,22.056,25.273,21.861ZM5.878,5.7A19.375,19.375,0,0,0,2.743,29.067L0,39l10.384-2.727a19.592,19.592,0,0,0,9.208,2.337,19.258,19.258,0,0,0,19.4-19.281A18.91,18.91,0,0,0,33.5,5.7,19.593,19.593,0,0,0,5.878,5.7Zm13.714,29.8a17.261,17.261,0,0,1-8.229-2.142l-.588-.39L4.7,34.521l1.567-5.843-.392-.584a16.3,16.3,0,0,1,5.29-22.4A16.078,16.078,0,1,1,28.212,32.963,16.513,16.513,0,0,1,19.592,35.494Z" transform="translate(0 0)" fill="#fff" style="mix-blend-mode: normal;isolation: isolate"/>
</svg>
