<svg xmlns="http://www.w3.org/2000/svg" width="32.954" height="23.171" viewBox="0 0 32.954 23.171">
  <path id="yt_logo" d="M33.315,8.125A4.141,4.141,0,0,0,30.4,5.193C27.832,4.5,17.527,4.5,17.527,4.5s-10.3,0-12.875.693A4.141,4.141,0,0,0,1.739,8.125a43.437,43.437,0,0,0-.689,7.983,43.437,43.437,0,0,0,.689,7.983,4.079,4.079,0,0,0,2.913,2.886c2.57.693,12.875.693,12.875.693s10.3,0,12.875-.693a4.079,4.079,0,0,0,2.913-2.886A43.437,43.437,0,0,0,34,16.109a43.437,43.437,0,0,0-.689-7.983ZM14.157,21.008v-9.8l8.613,4.9-8.613,4.9Z" transform="translate(-1.05 -4.5)" fill="#fff"/>
</svg>
